<?xml version="1.0" standalone="no"?><!DOCTYPE svg PUBLIC "-//W3C//DTD SVG 1.1//EN" "http://www.w3.org/Graphics/SVG/1.1/DTD/svg11.dtd"><svg t="1533892075118" class="icon" style="" viewBox="0 0 1024 1024" version="1.1" xmlns="http://www.w3.org/2000/svg" p-id="6245" xmlns:xlink="http://www.w3.org/1999/xlink" width="200" height="200"><defs><style type="text/css"></style></defs><path d="M512.3 511.2m-500 0a500 500 0 1 0 1000 0 500 500 0 1 0-1000 0Z" fill="#3389FF" p-id="6246"></path><path d="M399.5 724.6l-198-198c-23.3-23.3-23.3-61.5 0-84.9 23.3-23.3 61.5-23.3 84.9 0l198 198c23.3 23.3 23.3 61.5 0 84.9-23.4 23.3-61.6 23.3-84.9 0z" fill="#FFFFFF" p-id="6247"></path><path d="M400 724.8c-23.3-23.3-23.3-61.5 0-84.9l339.4-339.4c23.3-23.3 61.5-23.3 84.9 0 23.3 23.3 23.3 61.5 0 84.9L484.8 724.8c-23.3 23.4-61.5 23.4-84.8 0z" fill="#FFFFFF" p-id="6248"></path></svg>