<?xml version="1.0" standalone="no"?><!DOCTYPE svg PUBLIC "-//W3C//DTD SVG 1.1//EN" "http://www.w3.org/Graphics/SVG/1.1/DTD/svg11.dtd"><svg t="1533892090675" class="icon" style="" viewBox="0 0 1024 1024" version="1.1" xmlns="http://www.w3.org/2000/svg" p-id="7451" xmlns:xlink="http://www.w3.org/1999/xlink" width="200" height="200"><defs><style type="text/css"></style></defs><path d="M512 1024C229.233778 1024 0 794.766222 0 512S229.233778 0 512 0s512 229.233778 512 512-229.233778 512-512 512zM455.111111 227.384889v341.674667c0 31.288889 25.457778 56.718222 56.888889 56.718222 31.630222 0 56.888889-25.400889 56.888889-56.718222V227.384889C568.888889 196.096 543.431111 170.666667 512 170.666667c-31.630222 0-56.888889 25.400889-56.888889 56.718222zM512 853.333333a56.888889 56.888889 0 1 0 0-113.777777 56.888889 56.888889 0 0 0 0 113.777777z" fill="#FFB603" p-id="7452"></path></svg>